<svg t="1686271024410" class="icon" viewBox="0 0 1024 1024" version="1.1" xmlns="http://www.w3.org/2000/svg" p-id="1423" width="200" height="200"><path d="M512 512m-512 0a512 512 0 1 0 1024 0 512 512 0 1 0-1024 0Z" fill="#FF4D4F" p-id="1424"></path><path d="M326.4 691.2c0 6.4-6.4 12.8-12.8 12.8s-14.933333-6.4-14.933333-12.8V375.466667c0-6.4 6.4-12.8 14.933333-12.8s14.933333 6.4 14.933333 12.8v315.733333zM706.133333 689.066667c0 6.4-6.4 12.8-14.933333 12.8-8.533333 0-14.933333-6.4-14.933333-12.8V373.333333c0-6.4 6.4-12.8 14.933333-12.8 8.533333 0 14.933333 6.4 14.933333 12.8v315.733334z" fill="#FFFFFF" p-id="1425"></path><path d="M509.866667 642.133333c4.266667 6.4 2.133333 14.933333-6.4 17.066667-6.4 4.266667-17.066667 2.133333-21.333334-4.266667l-181.333333-273.066666c-4.266667-6.4-2.133333-12.8 6.4-17.066667s17.066667-2.133333 21.333333 4.266667l181.333334 273.066666z" fill="#FFFFFF" p-id="1426"></path><path d="M497.066667 659.2c6.4 4.266667 17.066667 2.133333 21.333333-4.266667l183.466667-273.066666c2.133333-6.4 0-14.933333-6.4-19.2s-17.066667-2.133333-21.333334 4.266666L490.666667 640c-4.266667 6.4-2.133333 14.933333 6.4 19.2z" fill="#FFFFFF" p-id="1427"></path></svg>